<svg width="29" height="32" viewBox="0 0 29 32" fill="none" xmlns="http://www.w3.org/2000/svg">
<path fill-rule="evenodd" clip-rule="evenodd" d="M25.2268 14.1997L27.5927 19.2628C22.3349 19.7778 18.8307 22.0464 14.7222 23.7107C10.5334 21.9763 6.85021 19.9531 1 19.1681L4.40689 14.1997H5.36065L5.79373 17.4639L14.1938 21.9622L20.5558 19.8851L23.2277 14.1997H25.2268Z" fill="white" fill-opacity="0.651408"/>
<path fill-rule="evenodd" clip-rule="evenodd" d="M1.19288 -2.28882e-05C-0.957496 7.03131 2.9291 11.441 2.9291 11.441C2.56166 13.2508 1.13962 15.5528 0.128555 17.4707C9.53125 19.4234 10.3527 25.48 13.1023 30.4444C14.1013 31.3905 15.1289 31.5242 16.2022 30.3686C18.5809 25.3037 20.5278 19.9347 28.3843 17.4706C27.3047 16.0538 27.0052 13.0762 26.7697 11.441C27.7273 8.86315 29.3197 6.99949 27.4946 6.67572e-06C22.8781 1.2418 18.3162 3.90575 17.9077 5.66332C15.7875 4.91199 13.1555 4.98589 11.7238 5.66332C11.7198 4.82701 8.09624 0.0228327 1.19288 6.67572e-06V-2.28882e-05ZM2.25254 2.22411C2.25254 2.22411 3.86901 4.48701 4.0594 5.77081C4.24979 7.0546 3.39022 9.51818 3.39022 9.51818C3.39022 9.51818 2.27405 7.61521 2.05186 6.37296C1.82968 5.13071 2.25254 2.22411 2.25254 2.22411ZM26.5067 2.29103C26.5067 2.29103 26.9295 5.19776 26.7073 6.44002C26.4851 7.68227 25.369 9.5851 25.369 9.5851C25.369 9.5851 24.5094 7.12153 24.6998 5.83773C24.8902 4.55393 26.5067 2.29103 26.5067 2.29103ZM5.96796 13.3325L9.31385 16.8791L6.30255 16.0092L5.96796 13.3325ZM22.2908 13.3325L21.9562 16.0092L18.9449 16.8791L22.2908 13.3325ZM16.6698 27.2513L14.6622 30.1957L12.7216 27.3182L16.6698 27.2513Z" fill="#FFFCFA" fill-opacity="0.647887"/>
<path fill-rule="evenodd" clip-rule="evenodd" d="M1.19288 -2.28882e-05C-0.957496 7.03131 2.9291 11.441 2.9291 11.441C2.56166 13.2508 1.13962 15.5528 0.128555 17.4707C9.53125 19.4234 10.3527 25.48 13.1023 30.4444C14.1013 31.3905 15.1289 31.5242 16.2022 30.3686C18.5809 25.3037 20.5278 19.9347 28.3843 17.4706C27.3047 16.0538 27.0052 13.0762 26.7697 11.441C27.7273 8.86315 29.3197 6.99949 27.4946 6.67572e-06C22.8781 1.2418 18.3162 3.90575 17.9077 5.66332C15.7875 4.91199 13.1555 4.98589 11.7238 5.66332C11.7198 4.82701 8.09624 0.0228327 1.19288 6.67572e-06V-2.28882e-05ZM2.25254 2.22411C2.25254 2.22411 3.86901 4.48701 4.0594 5.77081C4.24979 7.0546 3.39022 9.51818 3.39022 9.51818C3.39022 9.51818 2.27405 7.61521 2.05186 6.37296C1.82968 5.13071 2.25254 2.22411 2.25254 2.22411ZM26.5067 2.29103C26.5067 2.29103 26.9295 5.19776 26.7073 6.44002C26.4851 7.68227 25.369 9.5851 25.369 9.5851C25.369 9.5851 24.5094 7.12153 24.6998 5.83773C24.8902 4.55393 26.5067 2.29103 26.5067 2.29103ZM5.96796 13.3325L9.31385 16.8791L6.30255 16.0092L5.96796 13.3325ZM22.2908 13.3325L21.9562 16.0092L18.9449 16.8791L22.2908 13.3325ZM16.6698 27.2513L14.6622 30.1957L12.7216 27.3182L16.6698 27.2513Z" fill="white"/>
</svg>
