<svg width="48" height="48" viewBox="0 0 48 48" fill="none" xmlns="http://www.w3.org/2000/svg">
<path opacity="0.99" d="M23.9826 46.9937C36.5633 46.9937 46.762 36.7951 46.762 24.2143C46.762 11.6336 36.5633 1.43497 23.9826 1.43497C11.4019 1.43497 1.20326 11.6336 1.20326 24.2143C1.20326 36.7951 11.4019 46.9937 23.9826 46.9937Z" fill="#4B5563"/>
<path fill-rule="evenodd" clip-rule="evenodd" d="M34.2268 24.1997L36.5927 29.2628C31.3349 29.7778 27.8307 32.0464 23.7222 33.7106C19.5334 31.9763 15.8502 29.9531 10 29.1681L13.4069 24.1997H14.3607L14.7937 27.4639L23.1938 31.9622L29.5558 29.8851L32.2277 24.1997H34.2268Z" fill="white" fill-opacity="0.651408"/>
<path fill-rule="evenodd" clip-rule="evenodd" d="M10.1929 9.99997C8.0425 17.0313 11.9291 21.441 11.9291 21.441C11.5617 23.2508 10.1396 25.5527 9.12855 27.4707C18.5313 29.4234 19.3527 35.48 22.1022 40.4444C23.1013 41.3904 24.1289 41.5242 25.2022 40.3686C27.5809 35.3037 29.5278 29.9347 37.3843 27.4706C36.3047 26.0538 36.0052 23.0762 35.7697 21.441C36.7273 18.8631 38.3197 16.9995 36.4946 10C31.8781 11.2418 27.3162 13.9057 26.9077 15.6633C24.7875 14.912 22.1555 14.9859 20.7238 15.6633C20.7198 14.827 17.0962 10.0228 10.1929 10V9.99997ZM11.2525 12.2241C11.2525 12.2241 12.869 14.487 13.0594 15.7708C13.2498 17.0546 12.3902 19.5182 12.3902 19.5182C12.3902 19.5182 11.274 17.6152 11.0519 16.373C10.8297 15.1307 11.2525 12.2241 11.2525 12.2241V12.2241ZM35.5067 12.291C35.5067 12.291 35.9295 15.1978 35.7073 16.44C35.4851 17.6823 34.369 19.5851 34.369 19.5851C34.369 19.5851 33.5094 17.1215 33.6998 15.8377C33.8902 14.5539 35.5067 12.291 35.5067 12.291V12.291ZM14.968 23.3325L18.3139 26.879L15.3025 26.0092L14.968 23.3325ZM31.2908 23.3325L30.9562 26.0092L27.9449 26.879L31.2908 23.3325ZM25.6698 37.2513L23.6622 40.1957L21.7216 37.3182L25.6698 37.2513Z" fill="#FFFCFA" fill-opacity="0.647887"/>
<path fill-rule="evenodd" clip-rule="evenodd" d="M10.1929 9.99997C8.0425 17.0313 11.9291 21.441 11.9291 21.441C11.5617 23.2508 10.1396 25.5527 9.12855 27.4707C18.5313 29.4234 19.3527 35.48 22.1022 40.4444C23.1013 41.3904 24.1289 41.5242 25.2022 40.3686C27.5809 35.3037 29.5278 29.9347 37.3843 27.4706C36.3047 26.0538 36.0052 23.0762 35.7697 21.441C36.7273 18.8631 38.3197 16.9995 36.4946 10C31.8781 11.2418 27.3162 13.9057 26.9077 15.6633C24.7875 14.912 22.1555 14.9859 20.7238 15.6633C20.7198 14.827 17.0962 10.0228 10.1929 10V9.99997ZM11.2525 12.2241C11.2525 12.2241 12.869 14.487 13.0594 15.7708C13.2498 17.0546 12.3902 19.5182 12.3902 19.5182C12.3902 19.5182 11.274 17.6152 11.0519 16.373C10.8297 15.1307 11.2525 12.2241 11.2525 12.2241V12.2241ZM35.5067 12.291C35.5067 12.291 35.9295 15.1978 35.7073 16.44C35.4851 17.6823 34.369 19.5851 34.369 19.5851C34.369 19.5851 33.5094 17.1215 33.6998 15.8377C33.8902 14.5539 35.5067 12.291 35.5067 12.291V12.291ZM14.968 23.3325L18.3139 26.879L15.3025 26.0092L14.968 23.3325ZM31.2908 23.3325L30.9562 26.0092L27.9449 26.879L31.2908 23.3325ZM25.6698 37.2513L23.6622 40.1957L21.7216 37.3182L25.6698 37.2513Z" fill="white"/>
</svg>
